<?xml version="1.0" encoding="utf-8"?>
<!-- Generator: Adobe Illustrator 23.1.0, SVG Export Plug-In . SVG Version: 6.00 Build 0)  -->
<svg version="1.1" id="Слой_1" xmlns="http://www.w3.org/2000/svg" xmlns:xlink="http://www.w3.org/1999/xlink" x="0px" y="0px"
	 viewBox="0 0 512 512" style="enable-background:new 0 0 512 512;" xml:space="preserve">
<g id="arrow">
	<path d="M315.22,128l-78.75,100.26l-21.83,27.8l21.83,27.8L315.14,384h-106.7c-15.84-23.47-31.74-47.1-46.13-68.5l-0.1-0.15
		c-13.08-19.45-26.53-39.44-39.92-59.3c30.72-45.58,59.05-87.76,86-128.05H315.22z"/>
	<path d="M36.08,273.21c24.3,35.97,48.93,72.59,72.75,108.01c22.36,33.24,45.3,67.34,68.22,101.29h327.01L326.21,256.08L504.17,29.5
		H176.83C133.16,94.78,86.98,163.51,36.35,238.58C28.51,250.21,28.42,261.86,36.08,273.21z M75.98,244.23
		C115.39,185.79,150.81,133.04,184.24,83h223.55l-4.37,5.57c-0.88,2.2-2.37,4.14-4.36,5.55L271.86,256.06L407.71,429H184.54
		c-19.93-29.45-40.08-59.4-59.58-88.38c-16.1-23.93-32.75-48.68-49.17-72.99C70.62,259.96,70.68,252.09,75.98,244.23z"/>
</g>
</svg>
