<?xml version="1.0" encoding="utf-8"?>
<!-- Generator: Adobe Illustrator 23.1.0, SVG Export Plug-In . SVG Version: 6.00 Build 0)  -->
<svg version="1.1" id="Слой_1" xmlns="http://www.w3.org/2000/svg" xmlns:xlink="http://www.w3.org/1999/xlink" x="0px" y="0px"
	 viewBox="0 0 512 512" style="enable-background:new 0 0 512 512;" xml:space="preserve">
<g id="arrow">
	<path d="M219.36,128l78.75,100.26l21.83,27.8l-21.83,27.8L219.43,384h106.7c15.84-23.47,31.74-47.1,46.13-68.5l0.1-0.15
		c13.08-19.45,26.53-39.44,39.92-59.3c-30.72-45.58-59.05-87.76-86-128.05H219.36z"/>
	<path d="M498.22,238.58c-50.63-75.07-96.81-143.8-140.47-209.08H30.4l177.96,226.58L30.51,482.5h327.01
		c22.92-33.95,45.86-68.05,68.22-101.29c23.82-35.42,48.46-72.04,72.75-108.01C506.16,261.86,506.06,250.21,498.22,238.58z
		 M458.77,267.63c-16.42,24.3-33.07,49.05-49.17,72.99c-19.5,28.99-39.64,58.94-59.58,88.38H126.86l135.85-172.94L135.53,94.12
		c-1.99-1.42-3.49-3.36-4.36-5.55L126.79,83h223.55c33.43,50.04,68.85,102.79,108.25,161.23
		C463.89,252.09,463.95,259.96,458.77,267.63z"/>
</g>
</svg>
