<?xml version="1.0" encoding="utf-8"?>
<!-- Generator: Adobe Illustrator 23.1.0, SVG Export Plug-In . SVG Version: 6.00 Build 0)  -->
<svg version="1.1" id="Слой_1" xmlns="http://www.w3.org/2000/svg" xmlns:xlink="http://www.w3.org/1999/xlink" x="0px" y="0px"
	 viewBox="0 0 512 512" style="enable-background:new 0 0 512 512;" xml:space="preserve">
<g id="end">
	<path d="M500.07,188.5l-44.17,73.91l-2.15,3.59l2.15,3.59l44.17,73.91H12.75l44.17-73.91l2.15-3.59l-2.15-3.59L12.75,188.5H500.07
		 M512.41,181.5h-512l50.5,84.5l-50.5,84.5h512l-50.5-84.5L512.41,181.5L512.41,181.5z"/>

	<rect x="36.41" y="331.5" width="440" height="5"/>

	<rect x="36.41" y="195" width="440" height="5"/>

	<path d="M186.65,267.45h-37.84v35.1h42.18v10.54h-54.74v-97.35h52.58v10.54h-40.01v30.77h37.84V267.45z"/>
	<path d="M207.3,313.09v-97.35h13.72l31.2,49.25c7.22,11.41,12.85,21.67,17.48,31.63l0.29-0.14c-1.16-13-1.44-24.84-1.44-40.01
		v-40.73h11.84v97.35h-12.71l-30.91-49.4c-6.79-10.83-13.29-21.95-18.2-32.5l-0.43,0.14c0.72,12.28,1.01,23.98,1.01,40.15v41.6
		H207.3z"/>
	<path d="M302.34,217.04c7.66-1.16,16.75-2.02,26.72-2.02c18.05,0,30.91,4.19,39.43,12.13c8.67,7.94,13.72,19.21,13.72,34.95
		c0,15.89-4.91,28.89-14.01,37.84c-9.1,9.1-24.12,14.01-43.04,14.01c-8.96,0-16.47-0.43-22.82-1.16V217.04z M314.91,303.12
		c3.18,0.58,7.8,0.72,12.71,0.72c26.87,0,41.46-15.02,41.46-41.31c0.14-22.97-12.86-37.55-39.43-37.55c-6.5,0-11.41,0.58-14.73,1.3
		V303.12z"/>
</g>
</svg>
