<?xml version="1.0" encoding="utf-8"?>
<!-- Generator: Adobe Illustrator 23.1.0, SVG Export Plug-In . SVG Version: 6.00 Build 0)  -->
<svg version="1.1" id="Слой_1" xmlns="http://www.w3.org/2000/svg" xmlns:xlink="http://www.w3.org/1999/xlink" x="0px" y="0px"
	 viewBox="0 0 512 512" style="enable-background:new 0 0 512 512;" xml:space="preserve">
<g id="start">
	<path d="M499.16,188.5l-44.17,73.91l-2.15,3.59l2.15,3.59l44.17,73.91H11.84l44.17-73.91l2.15-3.59l-2.15-3.59L11.84,188.5H499.16
		 M511.5,181.5h-512L50,266l-50.5,84.5h512L461,266L511.5,181.5L511.5,181.5z"/>

	<path d="M84.3,297.81c5.66,3.48,13.92,6.38,22.62,6.38c12.91,0,20.45-6.82,20.45-16.68c0-9.14-5.22-14.36-18.42-19.43
		c-15.95-5.66-25.81-13.92-25.81-27.7c0-15.23,12.62-26.54,31.61-26.54c10.01,0,17.26,2.32,21.61,4.79l-3.48,10.3
		c-3.19-1.74-9.72-4.64-18.56-4.64c-13.34,0-18.42,7.98-18.42,14.65c0,9.14,5.95,13.63,19.43,18.85
		c16.53,6.38,24.94,14.36,24.94,28.71c0,15.08-11.17,28.13-34.22,28.13c-9.43,0-19.72-2.75-24.94-6.24L84.3,297.81z"/>
	<path d="M176.09,226.17h-29.73v-10.73h72.36v10.73h-29.87v87.01h-12.76V226.17z"/>
	<path d="M234.53,282.44l-10.15,30.74h-13.05l33.21-97.74h15.23l33.35,97.74h-13.49l-10.44-30.74H234.53z M266.58,272.57
		l-9.57-28.13c-2.18-6.38-3.63-12.18-5.08-17.84h-0.29c-1.45,5.8-3.05,11.75-4.93,17.69l-9.57,28.28H266.58z"/>
	<path d="M307.48,216.74c6.38-1.31,15.52-2.03,24.22-2.03c13.49,0,22.19,2.47,28.28,7.98c4.93,4.35,7.69,11.02,7.69,18.56
		c0,12.91-8.12,21.46-18.42,24.94v0.44c7.54,2.61,12.04,9.57,14.36,19.72c3.19,13.63,5.51,23.06,7.54,26.83h-13.05
		c-1.59-2.76-3.77-11.17-6.53-23.35c-2.9-13.49-8.12-18.56-19.58-19h-11.89v42.35h-12.62V216.74z M320.09,261.26H333
		c13.49,0,22.04-7.4,22.04-18.56c0-12.62-9.14-18.13-22.48-18.27c-6.09,0-10.44,0.58-12.47,1.16V261.26z"/>
	<path d="M405.36,226.17h-29.73v-10.73H448v10.73h-29.87v87.01h-12.76V226.17z"/>

	<rect x="39" y="331.5" width="440" height="5"/>

	<rect x="39" y="195" width="440" height="5"/>
</g>
</svg>
